<svg width="24" height="25" viewBox="0 0 24 25" fill="none" xmlns="http://www.w3.org/2000/svg">
<g clip-path="url(#clip0_1286_8923)">
<path d="M12 15.5C12 16.2956 12.3161 17.0587 12.8787 17.6213C13.4413 18.1839 14.2044 18.5 15 18.5C15.7956 18.5 16.5587 18.1839 17.1213 17.6213C17.6839 17.0587 18 16.2956 18 15.5C18 14.7044 17.6839 13.9413 17.1213 13.3787C16.5587 12.8161 15.7956 12.5 15 12.5C14.2044 12.5 13.4413 12.8161 12.8787 13.3787C12.3161 13.9413 12 14.7044 12 15.5Z" stroke="#F6F9FB" stroke-width="1.5" stroke-linecap="round" stroke-linejoin="round"/>
<path d="M13 18V22.5L15 21L17 22.5V18" stroke="#F6F9FB" stroke-width="1.5" stroke-linecap="round" stroke-linejoin="round"/>
<path d="M10 19.5H5C4.46957 19.5 3.96086 19.2893 3.58579 18.9142C3.21071 18.5391 3 18.0304 3 17.5V7.5C3 6.4 3.9 5.5 5 5.5H19C19.5304 5.5 20.0391 5.71071 20.4142 6.08579C20.7893 6.46086 21 6.96957 21 7.5V17.5C20.9996 17.8507 20.9071 18.1952 20.7315 18.4988C20.556 18.8025 20.3037 19.0546 20 19.23" stroke="#F6F9FB" stroke-width="1.5" stroke-linecap="round" stroke-linejoin="round"/>
<path d="M6 9.5H18" stroke="#F6F9FB" stroke-width="1.5" stroke-linecap="round" stroke-linejoin="round"/>
<path d="M6 12.5H9" stroke="#F6F9FB" stroke-width="1.5" stroke-linecap="round" stroke-linejoin="round"/>
<path d="M6 15.5H8" stroke="#F6F9FB" stroke-width="1.5" stroke-linecap="round" stroke-linejoin="round"/>
</g>
<defs>
<clipPath id="clip0_1286_8923">
<rect width="24" height="24" fill="white" transform="translate(0 0.5)"/>
</clipPath>
</defs>
</svg>
